<?xml version="1.0" encoding="UTF-8" standalone="no"?>
<!-- Created with Inkscape (http://www.inkscape.org/) -->

<svg
   width="1000"
   height="1000"
   viewBox="0 0 264.58333 264.58333"
   version="1.1"
   id="svg1"
   inkscape:version="1.3 (0e150ed, 2023-07-21)"
   sodipodi:docname="spikyscribble.svg"
   xmlns:inkscape="http://www.inkscape.org/namespaces/inkscape"
   xmlns:sodipodi="http://sodipodi.sourceforge.net/DTD/sodipodi-0.dtd"
   xmlns="http://www.w3.org/2000/svg"
   xmlns:svg="http://www.w3.org/2000/svg">
  <sodipodi:namedview
     id="namedview1"
     pagecolor="#ffffff"
     bordercolor="#000000"
     borderopacity="0.25"
     inkscape:showpageshadow="2"
     inkscape:pageopacity="0.0"
     inkscape:pagecheckerboard="0"
     inkscape:deskcolor="#d1d1d1"
     inkscape:document-units="mm"
     inkscape:zoom="0.46939842"
     inkscape:cx="484.66291"
     inkscape:cy="650.83305"
     inkscape:window-width="1360"
     inkscape:window-height="862"
     inkscape:window-x="0"
     inkscape:window-y="38"
     inkscape:window-maximized="0"
     inkscape:current-layer="layer1" />
  <defs
     id="defs1" />
  <g
     inkscape:label="Layer 1"
     inkscape:groupmode="layer"
     id="layer1">
    <path
       style="fill:none;stroke:#5d5d5d;stroke-width:1"
       d="m 55.239144,28.183236 c 1.315217,-0.187888 2.673112,-0.181903 3.945652,-0.563665 0.648872,-0.19466 1.048319,-0.913104 1.690994,-1.127329 0.534739,-0.178246 1.149017,0.15485 1.690995,0 0.807931,-0.230838 1.470403,-0.825693 2.25466,-1.127329 1.690994,-0.563665 3.381986,-1.12733 5.07298,-1.690994 0.375777,0 0.770837,0.118831 1.127332,0 4.05435,-1.351451 6.714609,-2.460061 10.709629,-3.381989 4.497737,-1.037939 9.499439,-1.714402 14.091618,-2.254659 7.288356,-0.857453 14.646096,-2.254659 21.982926,-2.254659 0.85397,0 3.16194,-0.391853 3.94565,0 0.92956,0.464779 2.25466,1.19228 2.25466,1.12733 0,-0.187888 -0.43081,-0.132857 -0.56367,0 -0.13285,0.132857 0.16806,0.479638 0,0.563664 -0.41704,0.208526 -2.14115,0.292797 -2.81832,0.563665 -0.55166,0.220664 -1.12733,0.375777 -1.69099,0.563665 -2.25466,0.939441 -4.53657,1.815989 -6.76398,2.818324 -3.21917,1.448628 -6.45845,2.865186 -9.5823,4.509317 -9.898873,5.209933 -19.449262,11.086917 -29.310566,16.346278 -4.027543,2.148022 -7.558013,5.052398 -11.836958,6.763977 -1.270016,0.508005 -2.695699,0.571794 -3.945654,1.127329 -0.485625,0.215834 -0.652005,0.889667 -1.127329,1.127329 -1.149689,0.574844 -3.743857,1.358714 -5.072983,1.690994 -0.220126,0.05503 -1.690995,-0.304625 -1.690995,0.563666 0,0.187888 0.375777,0 0.563666,0 0.751551,0 1.503106,0 2.25466,0 3.822012,0 7.491857,-0.545571 11.273292,-1.127329 3.572079,-0.549553 7.157429,-1.024959 10.70963,-1.690994 2.463808,-0.461966 4.84732,-1.328021 7.327643,-1.690995 7.863274,-1.150723 15.769074,-2.000581 23.673914,-2.818326 20.23174,-2.092936 40.53099,-4.509317 60.8758,-4.509317 1.56401,0 18.03727,-0.451168 18.03727,0.563666 0,0.187888 -0.37578,0 -0.56367,0 -0.56366,0 -1.12733,0 -1.69099,0 -1.50311,0 -3.01064,-0.115285 -4.50932,0 -7.48313,0.575624 -14.64521,1.634913 -21.98292,3.381988 -10.71473,2.551126 -21.6138,5.169001 -32.1289,8.45497 -0.96575,0.301799 -1.84067,0.866624 -2.81832,1.127331 -1.85139,0.493705 -3.79841,0.586671 -5.63664,1.127329 -1.37278,0.403757 -2.58817,1.238498 -3.94566,1.690994 -2.76713,0.922377 -5.61286,1.598787 -8.45497,2.254658 -4.653736,1.073941 -8.941436,2.569699 -13.527953,3.945654 -1.774479,0.532344 -3.850333,0.680752 -5.636647,1.127329 -2.565963,0 -0.03224,-0.265713 -1.690994,0.563665 -0.230603,0.115301 -2.660441,0.157883 -2.818323,0 -0.751554,-0.751554 0.93944,-0.563665 -0.563666,-0.563665 -0.199707,0 -2.46852,0.213863 -1.690994,-0.563663 0.50007,-0.500071 4.458052,0 5.072983,0 4.697206,0 9.394412,0 14.091618,0 15.811366,0 31.602816,-0.05845 47.347836,1.690994 10.1381,1.126453 20.38203,3.324135 30.4379,5.072981 5.0733,0.882316 10.19833,1.981554 15.21894,2.818323 2.49838,0.416396 4.57641,0.597209 6.76398,1.690994 0.27211,0.136057 5.15647,1.607505 3.94565,2.818326 -0.39857,0.398571 -1.12733,0 -1.69099,0 -5.26254,0 -10.53626,0.70762 -15.78261,1.127329 -11.24796,0.899837 -22.5451,1.27341 -33.81989,1.690994 -7.90667,0.292838 -15.77847,1.315019 -23.67392,1.690994 -7.51927,0.358061 -15.00758,0.563664 -22.54658,0.563664 -1.31522,0 -2.655981,0.257937 -3.945658,0 -6.52788,-1.305576 -0.955101,-1.127329 -5.072981,-1.127329 -0.01543,0 -3.381989,-0.850482 -3.381989,-0.563666 0,0.187889 0.375777,0 0.563663,0 0.563666,0 1.127332,0 1.690995,0 4.876027,0 -0.06098,-0.237662 3.945654,0.563666 4.344216,0.868844 8.633606,1.235675 12.964286,2.25466 3.77045,0.887164 7.4962,1.959893 11.2733,2.818323 6.66858,1.515589 13.5486,2.288476 20.29193,3.381989 11.66017,1.890837 23.40336,4.198675 34.94721,6.763975 1.33528,0.296727 2.60437,0.859073 3.94565,1.127331 0.55272,0.110543 1.14416,-0.13671 1.691,0 1.72924,0.432311 3.3591,1.201307 5.07298,1.690997 6.83674,1.95335 12.7606,3.51105 18.60094,7.8913 0.56103,0.42078 5.3728,4.20949 5.07298,4.50932 -0.26571,0.26571 -0.77084,-0.11883 -1.12733,0 -3.0102,1.0034 -6.35438,0.56366 -9.5823,0.56366 -12.96429,0 -25.92858,0 -38.89287,0 -5.90167,0 -12.20019,0.60376 -18.03727,-0.56366 -5.32894,-1.06579 -10.49378,-2.77036 -15.78261,-3.94565 -0.55024,-0.12228 -1.14416,0.13671 -1.691,0 -0.25777,-0.0644 -0.31158,-0.47964 -0.56366,-0.56367 -0.49756,-0.16585 -1.66251,0 -2.25466,0 -0.18789,0 -0.56366,-0.18788 -0.56366,0 0,0.0875 2.79191,-0.16482 3.94565,0 1.71483,0.24498 3.39923,0.681 5.07298,1.12733 4.91749,1.31133 9.70044,2.61166 14.65528,3.94565 6.70254,1.80453 13.65743,3.0316 20.29194,5.07299 3.26877,0.42712 5.97275,2.36669 9.01863,3.38199 1.46986,0.48995 3.03946,0.63737 4.50932,1.12732 8.6561,2.88537 17.07104,6.31803 25.36491,10.14597 2.81386,1.2987 4.43355,1.2105 7.32764,2.81832 2.75281,1.52934 -0.39819,0.80672 2.25466,1.691 0.55837,0.18612 2.46735,0.77635 2.81833,1.12733 0.13285,0.13286 -0.13286,0.43081 0,0.56366 0.13285,0.13286 0.4308,-0.13285 0.56366,0 0.80814,0.80814 -2.23911,0.56367 -3.38199,0.56367 -5.07298,0 -10.14596,0 -15.21895,0 -10.19571,0 -20.32412,-1.01674 -30.43789,-1.691 -4.33241,-0.28883 -8.62353,-1.41969 -12.96429,-1.69099 -1.50018,-0.0938 -3.01003,0.10709 -4.50932,0 -4.4466,-0.31762 -10.87521,-0.72572 -15.21894,-1.69099 -3.29273,-0.73172 0.92897,-0.56367 -2.25466,-0.56367 -0.37578,0 -1.50311,0 -1.12733,0 3.59446,0 6.83354,3.73367 9.5823,5.63665 2.57106,1.77996 5.3295,3.27972 7.8913,5.07298 0.9856,0.68992 1.80334,1.60876 2.81833,2.25466 1.06334,0.67667 2.34943,0.96821 3.38199,1.69099 0.87072,0.60951 1.38393,1.64515 2.25465,2.25466 1.03256,0.72279 2.30121,1.04253 3.38199,1.691 1.96663,1.17998 3.70174,2.71434 5.63665,3.94565 5.77974,3.67802 11.92108,7.08787 18.03727,10.14596 3.69446,1.84723 7.4588,4.04728 11.2733,5.63665 3.96736,1.65307 7.9657,3.13736 11.83695,5.07298 3.01183,1.50591 6.79022,3.83817 10.14597,4.50932 0.56166,0.11233 4.49496,1.14169 3.94565,1.691 -0.49732,0.49732 -9.78919,-0.95998 -10.70963,-1.12733 -8.46076,-1.53832 -16.89268,-3.1716 -25.36491,-4.50932 -1.86515,-0.2945 -3.75776,-0.37578 -5.63665,-0.56367 -2.25466,-0.37577 -4.51202,-0.73568 -6.76397,-1.12733 -8.75559,-1.5227 -17.07553,-4.08931 -25.92858,-5.07298 -4.30036,-0.47781 -6.8927,-1.58072 -11.2733,-2.25466 -2.16875,-0.33365 -3.94565,-0.6703 -3.94565,-0.56366 0,0.0341 1.5844,-0.0426 1.69099,0 0.78017,0.31206 1.52014,0.71926 2.25466,1.12733 0.93944,0.56366 1.87889,1.12733 2.81833,1.69099 0.56366,0.56367 1.02773,1.24882 1.69099,1.691 0.49437,0.32957 1.12733,0.37577 1.691,0.56366 0.75155,0.56366 1.51311,1.11423 2.25465,1.691 2.52052,1.96039 5.15053,3.99217 7.89131,5.63664 1.08078,0.64847 2.31864,1.01432 3.38199,1.691 1.01499,0.6459 1.84816,1.5432 2.81832,2.25466 1.87888,1.31521 3.75777,2.63043 5.63665,3.94565 0.75155,0.37578 1.54785,0.67295 2.25466,1.12733 3.86461,2.48439 7.35351,5.49588 11.27329,7.8913 7.52878,4.60092 15.22212,8.45762 21.98293,14.09162 2.28785,1.90654 5.35285,2.98625 7.8913,4.50932 2.01267,1.2076 4.09274,2.89186 6.20032,3.94565 0.23678,0.1184 2.2541,0.56423 1.69099,1.12733 -0.16752,0.16752 -8.3861,0 -8.45497,0 -3.54795,0 -7.17633,-0.29444 -10.70963,0 -1.32398,0.11033 -2.61913,0.48997 -3.94565,0.56367 -8.76112,0.48673 -17.71772,0 -26.49224,0 -0.93945,0 -1.87889,0 -2.81833,0 -5.82454,0 -11.64907,0 -17.4736,0 -0.75156,0 -1.72324,0.53143 -2.25466,0 -0.13286,-0.13286 0,-0.37578 0,-0.56367"
       id="path1" />
  </g>
</svg>
