<?xml version="1.0" encoding="UTF-8" standalone="no"?>
<!-- Created with Inkscape (http://www.inkscape.org/) -->

<svg
   width="36.914669mm"
   height="64.431335mm"
   viewBox="0 0 36.914669 64.431335"
   version="1.1"
   id="svg1"
   xml:space="preserve"
   inkscape:version="1.3.2 (091e20e, 2023-11-25)"
   sodipodi:docname="p3.svg"
   xmlns:inkscape="http://www.inkscape.org/namespaces/inkscape"
   xmlns:sodipodi="http://sodipodi.sourceforge.net/DTD/sodipodi-0.dtd"
   xmlns="http://www.w3.org/2000/svg"
   xmlns:svg="http://www.w3.org/2000/svg"><sodipodi:namedview
     id="namedview1"
     pagecolor="#ffffff"
     bordercolor="#000000"
     borderopacity="0.25"
     inkscape:showpageshadow="2"
     inkscape:pageopacity="0.0"
     inkscape:pagecheckerboard="0"
     inkscape:deskcolor="#d1d1d1"
     inkscape:document-units="mm"
     inkscape:zoom="0.87767754"
     inkscape:cx="121.91266"
     inkscape:cy="148.11818"
     inkscape:window-width="1312"
     inkscape:window-height="763"
     inkscape:window-x="0"
     inkscape:window-y="38"
     inkscape:window-maximized="0"
     inkscape:current-layer="layer1" /><defs
     id="defs1" /><g
     inkscape:label="Layer 1"
     inkscape:groupmode="layer"
     id="layer1"
     transform="translate(-85.996056,-116.28433)"><path
       style="fill:#000000"
       d="m 102.13534,180.52564 c 4e-5,-0.17195 0.73765,-0.77917 1.28409,-1.05708 0.29494,-0.15 0.74582,-0.33683 1.00193,-0.41515 0.41257,-0.12618 0.48683,-0.18493 0.65126,-0.51523 0.10208,-0.20505 0.22664,-0.55912 0.27681,-0.78682 0.0502,-0.22771 0.14371,-0.53251 0.20787,-0.67734 0.19336,-0.43649 0.95015,-2.90393 1.22338,-3.98866 0.59355,-2.35647 1.28255,-5.74298 1.66228,-8.17033 0.0765,-0.48895 0.1922,-1.1557 0.25714,-1.48167 0.42074,-2.11189 0.77107,-7.68713 0.68098,-10.83733 -0.0728,-2.54412 -0.16911,-3.56756 -0.55395,-5.88434 -0.0425,-0.25611 -0.12237,-0.75141 -0.17739,-1.10066 -0.1269,-0.80542 -0.54835,-2.78949 -0.71041,-3.34434 -0.068,-0.23283 -0.22602,-0.78528 -0.35115,-1.22766 -0.12513,-0.44239 -0.27576,-0.91864 -0.33473,-1.05834 -0.059,-0.1397 -0.25175,-0.7112 -0.42839,-1.27 -0.17665,-0.5588 -0.37041,-1.11125 -0.43058,-1.22766 -0.0602,-0.11642 -0.10964,-0.258 -0.10993,-0.31463 -2.9e-4,-0.0566 -0.0545,-0.22808 -0.12046,-0.381 -0.27054,-0.62718 -0.37229,-0.88083 -0.43049,-1.07319 -0.0337,-0.11137 -0.21219,-0.53047 -0.39666,-0.93134 -1.11072,-2.4136 -1.04373,-2.32888 -1.61856,-2.04705 -0.19544,0.0958 -0.58395,0.34203 -0.86335,0.54714 -0.53112,0.38989 -0.54973,0.40509 -1.12996,0.92266 -0.59366,0.52955 -1.960374,2.13468 -1.960374,2.30235 0,0.0874 -0.58262,0.89635 -0.65173,0.90494 -0.0374,0.005 -0.10885,-0.13736 -0.15885,-0.31558 -0.11475,-0.40897 -0.228928,-0.44752 -0.437298,-0.14762 -0.24096,0.3468 -0.75946,1.67361 -0.90943,2.32716 -0.21997,0.95859 -0.31847,1.04622 -0.4194,0.37312 -0.0996,-0.66446 -0.42697,-0.71303 -0.71593,-0.10623 -0.0923,0.19375 -0.19247,0.50467 -0.22268,0.69093 -0.0302,0.18627 -0.0861,0.45297 -0.12428,0.59267 -0.0381,0.1397 -0.13736,0.56832 -0.2205,0.9525 -0.0831,0.38417 -0.18061,0.6985 -0.2166,0.6985 -0.036,0 -0.10542,-0.14848 -0.15429,-0.32996 -0.14008,-0.52022 -0.43476,-0.54963 -0.71027,-0.0709 -0.34463,0.59885 -0.64441,1.7586 -0.77656,3.00434 -0.0309,0.29104 -0.0921,0.52917 -0.13604,0.52917 -0.14516,0 -0.79745,-1.62061 -1.07345,-2.667 -0.0491,-0.18627 -0.13936,-0.52917 -0.20051,-0.762 -0.14592,-0.55559 -0.14368,-2.44528 0.004,-3.25967 0.20176,-1.11375 0.67189,-2.39206 1.07996,-2.93652 0.1111,-0.14823 0.202,-0.2915 0.202,-0.31837 0,-0.0711 0.56522,-0.86395 0.83083,-1.16545 0.31657,-0.35934 1.11197,-1.11944 1.20711,-1.15355 0.0433,-0.0155 0.0787,-0.15962 0.0787,-0.32023 0,-0.40223 -0.24159,-0.48846 -0.79024,-0.28206 -0.50878,0.1914 -1.49561,0.77288 -1.87098,1.10246 -0.39574,0.34747 -0.463,0.31714 -0.34254,-0.15445 0.0565,-0.22119 0.0948,-0.45931 0.0851,-0.52916 -0.0716,-0.51564 -1.38537,0.44846 -2.58141,1.8944 -0.29248,0.35359 -0.56463,0.6226 -0.60477,0.59779 -0.0401,-0.0248 -0.0527,-0.22722 -0.0279,-0.44981 0.0354,-0.31775 0.0105,-0.44739 -0.11576,-0.60332 l -0.16082,-0.19862 -0.24549,0.17674 c -0.54452,0.39201 -1.99017,2.00975 -2.23286,2.49865 -0.0636,0.12806 -0.14724,0.23283 -0.18594,0.23283 -0.0387,0 -0.0704,0.037 -0.0704,0.0822 0,0.16103 -0.42977,1.01851 -0.51048,1.01851 -0.0452,0 -0.0824,-0.0286 -0.0827,-0.0635 -2.7e-4,-0.0349 -0.0386,-0.2921 -0.0852,-0.5715 -0.11372,-0.68173 -0.11366,-2.34126 1.2e-4,-3.05935 0.28884,-1.8229 0.97739,-3.22905 2.23932,-4.57307 0.39395,-0.41957 0.88015,-0.87219 1.08044,-1.0058 0.2003,-0.13362 0.40228,-0.28452 0.44885,-0.33535 0.1373,-0.14985 0.96669,-0.6361 1.085,-0.6361 0.0598,0 0.14499,-0.0348 0.18923,-0.0772 0.13123,-0.12602 1.15268,-0.51542 1.35202,-0.51542 0.10124,0 0.29748,-0.0566 0.4361,-0.12574 0.66135,-0.32992 3.63183,-0.38145 4.83147,-0.0838 0.41134,0.10206 0.66889,0.12667 0.78424,0.0749 0.171668,-0.077 0.171658,-0.0772 -0.01,-0.33104 -0.26324,-0.3688 -1.77658,-1.31233 -2.10486,-1.31233 -0.0887,0 -0.18329,-0.0355 -0.21014,-0.079 -0.0268,-0.0434 -0.25702,-0.1222 -0.51152,-0.17503 -0.25449,-0.0528 -0.48367,-0.12998 -0.50929,-0.17143 -0.0516,-0.0836 0.30207,-0.28348 0.64812,-0.36629 0.38679,-0.0926 0.35664,-0.27942 -0.0791,-0.49037 -0.31073,-0.15042 -0.69466,-0.21912 -1.77331,-0.3173 -1.01757,-0.0926 -1.37672,-0.15435 -1.37672,-0.23663 0,-0.0612 0.0286,-0.11136 0.0635,-0.11142 0.12113,-2e-4 0.50521,-0.3818 0.56047,-0.55686 0.0806,-0.25535 -0.35274,-0.36936 -1.64044,-0.43159 -0.82096,-0.0397 -1.21775,-0.019 -1.76642,0.0922 -0.3892,0.0789 -0.72488,0.12613 -0.74597,0.10504 -0.0211,-0.0211 0.1642,-0.23697 0.41176,-0.47974 0.53505,-0.52471 1.84443,-1.4039 2.2916,-1.53871 0.17462,-0.0526 0.3175,-0.12779 0.3175,-0.16698 0,-0.0392 0.0587,-0.0713 0.13037,-0.0713 0.0717,0 0.27173,-0.0707 0.4445,-0.1571 0.17277,-0.0864 0.61893,-0.22267 0.99146,-0.30283 0.37253,-0.0802 0.83708,-0.1809 1.03233,-0.2239 0.47011,-0.10352 1.25014,-0.0989 1.99945,0.0118 0.89818,0.13271 1.02955,0.17552 2.468068,0.80426 0.6388,0.2792 1.275794,0.74948 2.027284,1.49669 0.86069,0.85578 0.86253,0.85575 1.10883,-0.0202 0.19477,-0.69272 0.6028,-1.59792 0.9923,-2.20133 0.6133,-0.95015 2.28974,-2.54 2.67833,-2.54 0.0534,0 0.0971,-0.0339 0.0971,-0.0753 0,-0.12752 1.60379,-0.76309 2.49767,-0.9898 1.21349,-0.30777 2.66686,-0.35871 3.85233,-0.13503 0.48895,0.0922 1.0033,0.21292 1.143,0.26815 0.24992,0.0988 0.23972,0.10555 -0.635,0.41988 -1.17285,0.42147 -2.11207,0.96658 -2.82674,1.6406 -0.27823,0.2624 -0.40191,0.55419 -0.24242,0.57191 0.21404,0.0238 0.44631,0.0586 0.76955,0.11528 l 0.36738,0.0644 -0.45205,0.27535 c -0.97128,0.59161 -1.61255,1.0307 -2.19998,1.50638 -0.10064,0.0815 -0.21063,0.14817 -0.24442,0.14817 -0.10046,0 -0.27259,0.48975 -0.20854,0.59337 0.0348,0.0563 0.23818,0.0861 0.49498,0.0725 0.24433,-0.013 0.43591,0.0134 0.43591,0.06 0,0.0457 -0.16885,0.23446 -0.37522,0.41948 -0.7198,0.64534 -1.06659,1.07459 -1.42305,1.76144 -0.36097,0.69553 -0.45714,1.18685 -0.24802,1.2671 0.0638,0.0245 0.44064,-0.26688 0.86783,-0.67086 1.6868,-1.59517 3.4289,-2.48591 5.61338,-2.87013 1.22979,-0.21631 2.77266,-0.11082 3.94708,0.26987 0.70788,0.22946 2.00768,0.82375 2.05152,0.93798 0.0227,0.0591 0.16132,0.16445 0.30809,0.2341 0.14676,0.0696 0.36956,0.22186 0.49509,0.33826 0.12553,0.1164 0.25218,0.21164 0.28143,0.21164 0.13301,0 1.42686,1.48902 1.77366,2.04121 0.24384,0.38825 0.63588,1.18687 0.63588,1.29534 0,0.089 -0.25745,-0.002 -0.91017,-0.32235 -1.01043,-0.49558 -1.20889,-0.57552 -1.88383,-0.7588 -0.9458,-0.25682 -1.69334,-0.27749 -1.69334,-0.0468 0,0.0488 0.0896,0.20998 0.19915,0.35822 0.32135,0.43491 0.33849,0.55943 0.0709,0.51476 -0.12521,-0.0209 -0.32291,-0.0731 -0.43933,-0.11606 -1.00866,-0.37194 -2.73427,-0.67896 -3.12287,-0.55563 -0.25455,0.0808 -0.22168,0.33144 0.0741,0.56508 0.45718,0.36113 0.35589,0.41066 -0.83034,0.406 -1.53471,-0.006 -2.21689,0.099 -2.21689,0.34118 0,0.0811 0.46965,0.22289 1.40839,0.42521 0.97254,0.20961 1.72428,0.43925 1.72428,0.52673 0,0.037 0.0667,0.068 0.14816,0.0688 0.28715,0.003 2.05563,1.00935 2.22244,1.26458 0.0233,0.0357 0.1579,0.12401 0.29906,0.1963 0.24409,0.12498 0.54037,0.42596 1.38928,1.41133 1.07559,1.2485 1.89542,3.22243 2.00208,4.82049 l 0.0431,0.64538 -0.23451,-0.29633 c -0.44051,-0.55664 -1.83128,-1.86267 -1.98353,-1.86267 -0.0372,0 -0.23693,-0.1143 -0.44393,-0.254 -0.207,-0.1397 -0.46157,-0.254 -0.56573,-0.254 -0.1704,0 -0.18485,0.0318 -0.14423,0.3175 0.0248,0.17463 0.072,0.38418 0.10488,0.46567 0.0968,0.24013 -0.10615,0.17339 -0.40438,-0.13297 -0.30549,-0.31381 -2.06858,-1.74722 -2.16154,-1.75734 -0.0327,-0.004 -0.12614,-0.0192 -0.20763,-0.0348 -0.19597,-0.0375 -0.1884,0.13163 0.027,0.60454 0.0964,0.21152 0.15592,0.40388 0.13235,0.42745 -0.0369,0.0369 -0.46189,-0.2549 -1.53522,-1.05436 -0.1397,-0.10406 -0.3683,-0.25191 -0.508,-0.32857 -0.1397,-0.0767 -0.27305,-0.16341 -0.29633,-0.19278 -0.0733,-0.0925 -0.50918,-0.26163 -0.67426,-0.26163 -0.2165,0 -0.25742,0.16499 -0.11221,0.45237 0.0669,0.13238 0.10439,0.25794 0.0833,0.27901 -0.0211,0.0211 -0.35726,-0.0925 -0.74708,-0.25227 -0.8766,-0.35938 -1.65337,-0.60397 -2.31744,-0.72972 -0.2794,-0.0529 -0.67945,-0.13308 -0.889,-0.17818 -0.47333,-0.10186 -2.54422,-0.14104 -2.68816,-0.0509 -0.22606,0.14163 -0.0922,0.57564 0.72234,2.34232 0.49217,1.06743 1.33926,3.18135 1.73033,4.318 0.32399,0.94169 1.14038,3.87456 1.25601,4.51221 0.0498,0.27473 0.12896,0.60048 0.17588,0.72389 0.34645,0.91122 0.88112,4.51932 1.0496,7.0829 0.0214,0.32596 0.0751,0.91651 0.11923,1.31233 0.0442,0.39582 0.0789,0.77682 0.0772,0.84667 -0.002,0.0699 0.0431,0.79375 0.0996,1.60866 0.1179,1.70027 0.0691,7.18261 -0.0813,9.144 -0.0518,0.67522 -0.15107,1.95157 -0.22061,2.83634 -0.0695,0.88476 -0.14535,1.91346 -0.16848,2.286 -0.0882,1.42101 -0.23499,2.76355 -0.58312,5.334 -0.0694,0.51223 -0.16311,1.25518 -0.2083,1.651 -0.0452,0.39581 -0.14462,1.05972 -0.22096,1.47535 -0.0763,0.41562 -0.11873,0.83563 -0.0942,0.93335 0.0323,0.12892 0.25778,0.26794 0.8217,0.50672 0.88164,0.37333 1.7231,1.01031 1.78883,1.35415 0.0245,0.12805 0.003,0.21806 -0.0525,0.21848 -6.23011,0.0474 -9.87313,0.0276 -9.87312,-0.0534 z"
       id="path1" /></g></svg>
